<svg id="Lens-search" xmlns="http://www.w3.org/2000/svg" viewBox="0 0 236.62 237.01"><defs><style>.cls-1{fill:#007fbd;}</style></defs><title>BDoctors_lens_search</title><path class="cls-1" d="M329,405.31l15.15,14a4.6,4.6,0,0,0,3.14,1.22h2.27a4.65,4.65,0,0,1,3.27,1.35L423,491.72a4.64,4.64,0,0,1,.08,6.48L415.64,506l.12-.15-7.78,7.4a4.65,4.65,0,0,1-6.48-.09L331.62,443a4.67,4.67,0,0,1-1.35-3.27v-2.28a4.68,4.68,0,0,0-1.22-3.14l-14-15.14Z" transform="translate(-187.69 -277.5)"/><path class="cls-1" d="M266.77,277.5a79.08,79.08,0,1,0,79.07,79.07A79.07,79.07,0,0,0,266.77,277.5Zm0,142.58a63.51,63.51,0,1,1,63.5-63.51A63.5,63.5,0,0,1,266.77,420.08Z" transform="translate(-187.69 -277.5)"/></svg>